<svg width="279" height="274" viewBox="0 0 279 274" fill="none" xmlns="http://www.w3.org/2000/svg">
<path d="M96.6951 78.9852C101.562 77.9422 114.368 76.2329 120.162 75.5087L123.638 73.3358V49L134.503 50.3037L142.759 47.2617L151.451 49L159.273 43.7852L161.446 68.9901C171.006 67.9761 191.257 65.6005 195.777 64.2099C200.296 62.8193 208.959 59.5745 212.725 58.1259L222.72 126.788C224.313 129.395 227.5 136.783 227.5 145.474C227.5 156.338 226.631 196.753 226.631 198.926C226.631 200.664 221.996 203.706 219.678 205.01C218.954 206.893 217.244 210.92 216.201 211.963C214.898 213.267 95.3914 230.215 89.742 230.215C84.0926 230.215 74.0976 229.78 72.7939 227.608C71.4902 225.435 69.3173 175.894 69.3173 174.156C69.3173 172.417 63.6679 120.269 61.4951 109.84C59.7568 101.496 54.1074 93.9054 51.5 91.1531L61.4951 84.6346L60.1914 81.158C63.5231 81.3029 71.5771 81.5057 77.1395 81.158C84.0926 80.7235 90.6112 80.2889 96.6951 78.9852Z" fill="white"/>
<path d="M80.5919 223.635C81.022 223.635 81.4344 223.464 81.7385 223.161C82.0426 222.858 82.2134 222.446 82.2134 222.017C82.2134 221.588 82.0426 221.176 81.7385 220.873C81.4344 220.57 81.022 220.399 80.5919 220.399C80.1619 220.399 79.7494 220.57 79.4453 220.873C79.1412 221.176 78.9704 221.588 78.9704 222.017C78.9704 222.446 79.1412 222.858 79.4453 223.161C79.7494 223.464 80.1619 223.635 80.5919 223.635Z" fill="#151718"/>
<path d="M126.669 59.0785C127.966 70.7789 128.97 82.4879 129.679 94.2056C129.795 96.2635 133.038 96.2894 132.922 94.2056C132.221 82.4879 131.218 70.7789 129.912 59.0785C129.692 57.0335 126.449 57.0076 126.669 59.0785Z" fill="#151718"/>
<path d="M133.038 95.914C134.17 94.5439 135.387 93.247 136.684 92.0312C136.986 91.726 137.155 91.3145 137.155 90.8857C137.155 90.4569 136.986 90.0454 136.684 89.7403C136.375 89.4452 135.963 89.2805 135.536 89.2805C135.108 89.2805 134.697 89.4452 134.388 89.7403C133.095 90.9562 131.882 92.2531 130.755 93.6231C130.45 93.9226 130.266 94.3232 130.237 94.7492C130.243 95.1764 130.415 95.5844 130.716 95.8881C131.019 96.191 131.429 96.363 131.858 96.367C132.071 96.3664 132.281 96.3238 132.477 96.2416C132.673 96.1594 132.85 96.0393 133 95.8881L133.038 95.914Z" fill="#151718"/>
<path d="M135.322 92.1606C135.892 92.29 136.463 92.4453 137.021 92.6265L137.747 92.8854L138.163 93.0407H138.072L138.279 93.1313C139.316 93.5722 140.307 94.1141 141.237 94.7492C141.612 94.9594 142.054 95.0162 142.47 94.9075C142.887 94.7989 143.244 94.5333 143.468 94.1667C143.672 93.793 143.725 93.3559 143.616 92.9446C143.508 92.5333 143.246 92.1788 142.884 91.9535C140.866 90.537 138.587 89.534 136.178 89.0025C135.763 88.8986 135.325 88.9593 134.955 89.1718C134.584 89.3843 134.311 89.7319 134.193 90.1415C134.134 90.348 134.116 90.5642 134.141 90.7776C134.165 90.991 134.232 91.1974 134.337 91.385C134.442 91.5727 134.583 91.7378 134.752 91.8708C134.921 92.0039 135.114 92.1024 135.322 92.1606Z" fill="#151718"/>
<path d="M143.702 94.1538C144.157 93.3813 144.659 92.6378 145.206 91.9276L144.96 92.2512C145.465 91.6001 146.006 90.9779 146.581 90.3874C146.745 90.2403 146.878 90.0613 146.97 89.8614C147.062 89.6615 147.113 89.445 147.118 89.225C147.124 89.005 147.084 88.7861 147.002 88.5819C146.92 88.3777 146.797 88.1923 146.641 88.0371C146.484 87.8819 146.298 87.7602 146.093 87.6794C145.887 87.5986 145.668 87.5605 145.447 87.5672C145.227 87.574 145.01 87.6256 144.81 87.7188C144.611 87.812 144.432 87.945 144.285 88.1094C142.978 89.4349 141.84 90.9174 140.9 92.523C140.686 92.8965 140.627 93.3388 140.736 93.755C140.845 94.1712 141.113 94.5281 141.483 94.7492C141.857 94.9554 142.296 95.01 142.71 94.9015C143.123 94.7931 143.478 94.5299 143.702 94.1667V94.1538Z" fill="#151718"/>
<path d="M145.622 90.5686C145.98 90.5428 146.34 90.5428 146.698 90.5686H146.27C146.832 90.6496 147.381 90.8018 147.905 91.0216L147.515 90.8533C148.01 91.0744 148.48 91.3478 148.916 91.6688L148.579 91.4099C148.845 91.6172 149.096 91.842 149.332 92.0829C149.635 92.3833 150.046 92.5518 150.473 92.5518C150.901 92.5518 151.311 92.3833 151.615 92.0829C151.913 91.7783 152.079 91.3696 152.079 90.9439C152.079 90.5183 151.913 90.1096 151.615 89.805C150.842 89.0004 149.911 88.3651 148.879 87.9395C147.847 87.5139 146.738 87.3073 145.622 87.3329C145.191 87.3329 144.779 87.5033 144.475 87.8067C144.171 88.1101 144 88.5216 144 88.9507C144 89.3798 144.171 89.7913 144.475 90.0947C144.779 90.3981 145.191 90.5686 145.622 90.5686Z" fill="#151718"/>
<path d="M152.289 91.7464C153.442 90.9246 154.41 89.8708 155.13 88.653C155.239 88.47 155.311 88.267 155.34 88.0561C155.37 87.8451 155.357 87.6304 155.303 87.4244C155.249 87.2184 155.154 87.0252 155.024 86.8562C154.894 86.6871 154.732 86.5456 154.546 86.4398C154.353 86.3248 154.138 86.2516 153.914 86.2248C153.691 86.1981 153.464 86.2184 153.249 86.2845C152.855 86.3935 152.514 86.6419 152.289 86.9834C152.107 87.2876 151.908 87.5814 151.693 87.8635L151.952 87.527C151.5 88.1075 150.977 88.6292 150.395 89.0802L150.72 88.8343L150.616 88.9119C150.433 89.0116 150.278 89.1537 150.162 89.3261C150.024 89.4818 149.926 89.6683 149.876 89.8697C149.815 90.085 149.798 90.3102 149.825 90.5324C149.851 90.7545 149.922 90.9692 150.032 91.164C150.253 91.5226 150.6 91.7858 151.005 91.9017L151.433 91.9664C151.72 91.9672 152.002 91.8912 152.25 91.7464H152.289Z" fill="#151718"/>
<path d="M154.326 89.4167H153.898C154.684 89.5181 155.452 89.7272 156.181 90.0379L155.792 89.8697C156.135 90.0127 156.468 90.177 156.791 90.3615C156.984 90.4765 157.199 90.5507 157.422 90.5796C157.645 90.6086 157.872 90.5916 158.088 90.5298C158.491 90.4169 158.835 90.1525 159.048 89.792C159.26 89.4193 159.318 88.9792 159.212 88.5642C159.106 88.1491 158.842 87.7913 158.477 87.5658C157.093 86.7906 155.558 86.3226 153.976 86.1939C153.759 86.187 153.543 86.2232 153.34 86.3005C153.138 86.3777 152.952 86.4944 152.795 86.6438C152.638 86.7932 152.513 86.9722 152.426 87.1705C152.339 87.3688 152.293 87.5824 152.289 87.7988C152.288 88.0131 152.33 88.2254 152.412 88.4232C152.495 88.621 152.616 88.8004 152.769 88.9507C153.083 89.2351 153.487 89.4001 153.911 89.4167H154.326Z" fill="#151718"/>
<path d="M159.424 88.6789C156.829 77.2374 156.959 65.4723 157.089 53.8107C157.089 53.3816 156.918 52.9701 156.614 52.6667C156.31 52.3633 155.897 52.1928 155.467 52.1928C155.037 52.1928 154.625 52.3633 154.321 52.6667C154.017 52.9701 153.846 53.3816 153.846 53.8107C153.703 65.77 153.651 77.8198 156.298 89.5461C156.765 91.5781 159.891 90.711 159.424 88.6789Z" fill="#151718"/>
<path d="M153.937 52.827L150.045 58.276C149.931 58.4695 149.859 58.6843 149.832 58.907C149.805 59.1297 149.825 59.3555 149.889 59.5703C150.003 59.9729 150.268 60.3161 150.629 60.5281C151 60.7388 151.439 60.7971 151.853 60.6909C152.267 60.5846 152.624 60.322 152.847 59.9586L156.739 54.4967C156.852 54.3033 156.926 54.089 156.955 53.8667C156.984 53.6443 156.968 53.4184 156.907 53.2024C156.794 52.8037 156.535 52.462 156.181 52.2446C155.806 52.0415 155.368 51.9887 154.956 52.097C154.544 52.2052 154.188 52.4663 153.963 52.827H153.937Z" fill="#151718"/>
<path d="M151.939 57.8618L145.868 54.2637C145.495 54.0541 145.055 53.9978 144.641 54.1065C144.227 54.2152 143.871 54.4805 143.65 54.8461C143.44 55.2184 143.383 55.6576 143.492 56.0708C143.601 56.4839 143.867 56.8385 144.234 57.0594L150.304 60.6575C150.488 60.7646 150.692 60.8345 150.903 60.8631C151.114 60.8918 151.329 60.8788 151.535 60.8247C151.74 60.7706 151.934 60.6765 152.103 60.5479C152.273 60.4193 152.415 60.2586 152.523 60.0751C152.63 59.8915 152.7 59.6886 152.729 59.4781C152.758 59.2675 152.744 59.0533 152.69 58.8478C152.636 58.6423 152.542 58.4495 152.413 58.2803C152.284 58.1111 152.123 57.9689 151.939 57.8618Z" fill="#151718"/>
<path d="M143.209 54.7814C142.77 55.3064 142.379 55.8695 142.041 56.464C141.709 57.0592 141.431 57.6829 141.211 58.3278C141.149 58.5436 141.132 58.7697 141.161 58.9923C141.19 59.2149 141.264 59.4293 141.38 59.6221C141.592 59.9825 141.936 60.2469 142.34 60.3598C142.556 60.4216 142.783 60.4386 143.006 60.4097C143.229 60.3807 143.444 60.3065 143.637 60.1916C143.989 59.9694 144.251 59.6301 144.376 59.2338C144.443 59.0268 144.521 58.8238 144.61 58.6255L144.441 59.0138C144.752 58.2891 145.153 57.6064 145.634 56.9817L145.375 57.2147L145.518 57.0205C145.676 56.8827 145.793 56.7034 145.855 56.5028C145.953 56.3247 146.003 56.1237 145.998 55.9204C145.992 55.4892 145.82 55.0769 145.518 54.7685C145.214 54.4692 144.803 54.3018 144.376 54.3025C144.164 54.2977 143.953 54.3366 143.757 54.4168C143.56 54.497 143.383 54.6167 143.235 54.7685L143.209 54.7814Z" fill="#151718"/>
<path d="M143.559 57.6547L139.901 54.419C139.593 54.1229 139.186 53.9521 138.759 53.9401C138.327 53.9463 137.914 54.1177 137.605 54.419C137.306 54.7258 137.139 55.1367 137.139 55.5645C137.139 55.9922 137.306 56.4031 137.605 56.7099L141.263 59.9456C141.577 60.2379 141.988 60.4039 142.417 60.4116C142.844 60.4096 143.253 60.2426 143.559 59.9456C143.863 59.6387 144.035 59.2254 144.039 58.7937C144.035 58.366 143.862 57.9569 143.559 57.6547Z" fill="#151718"/>
<path d="M137.384 54.3543C135.526 55.3199 133.817 56.5494 132.312 58.0042C132.037 58.3132 131.89 58.7156 131.903 59.1289C131.916 59.5421 132.087 59.9348 132.381 60.2263C132.674 60.5179 133.069 60.6861 133.483 60.6965C133.897 60.7068 134.3 60.5586 134.608 60.2822C135.151 59.7636 135.723 59.2753 136.32 58.8196L135.983 59.0655C136.94 58.3625 137.955 57.7432 139.019 57.2147C139.388 56.9961 139.656 56.6415 139.765 56.2274C139.874 55.8133 139.816 55.373 139.602 55.0014C139.379 54.6383 139.023 54.3751 138.61 54.2666C138.197 54.1582 137.758 54.2127 137.384 54.419V54.3543Z" fill="#151718"/>
<path d="M134.53 58.1854C133.07 56.4958 131.375 55.0228 129.497 53.8107C129.125 53.5978 128.683 53.5395 128.268 53.6485C127.853 53.7575 127.498 54.0249 127.279 54.3931C127.069 54.7654 127.012 55.2046 127.121 55.6178C127.23 56.0309 127.496 56.3855 127.863 56.6064C128.373 56.9429 128.866 57.2923 129.341 57.6547L129.017 57.4088C130.191 58.3195 131.269 59.3473 132.234 60.4763C132.463 60.6988 132.751 60.8497 133.065 60.9103C133.378 60.971 133.702 60.9388 133.998 60.8176C134.293 60.6965 134.546 60.4918 134.726 60.2287C134.906 59.9657 135.005 59.6558 135.01 59.3373C134.992 58.9088 134.822 58.5006 134.53 58.1854Z" fill="#151718"/>
<path d="M127.058 55.2344C126.963 57.1156 126.998 59.0011 127.162 60.8775C127.176 61.3047 127.341 61.713 127.629 62.0295C127.94 62.3272 128.353 62.4941 128.784 62.4954C129.213 62.492 129.623 62.3205 129.926 62.0178C130.23 61.7151 130.402 61.3056 130.405 60.8775C130.241 59.0011 130.206 57.1156 130.301 55.2344C130.298 54.8064 130.126 54.3968 129.823 54.0942C129.519 53.7915 129.109 53.6199 128.68 53.6166C128.253 53.6264 127.846 53.8001 127.544 54.1013C127.242 54.4026 127.068 54.8084 127.058 55.2344Z" fill="#151718"/>
<path d="M129.614 76.875C109.873 83.594 89.0771 86.6984 68.2294 86.0386C66.1409 85.9739 66.1409 89.2096 68.2294 89.2743C89.3753 89.9416 110.469 86.7979 130.496 79.9942C132.455 79.3212 131.612 76.202 129.627 76.875H129.614Z" fill="#151718"/>
<path d="M66.4911 88.0706C69.9677 105.388 71.0963 123.017 72.4583 140.632C73.8204 158.247 75.1306 175.811 75.8311 193.439C76.2073 202.952 76.2981 212.569 78.9185 221.797C78.9756 222.002 79.0725 222.193 79.2038 222.361C79.3351 222.528 79.4981 222.668 79.6836 222.773C79.8691 222.877 80.0735 222.944 80.2849 222.97C80.4964 222.996 80.7109 222.98 80.9162 222.923C81.1215 222.866 81.3135 222.769 81.4813 222.638C81.6491 222.507 81.7894 222.345 81.8942 222.16C81.999 221.974 82.0663 221.771 82.0921 221.56C82.1179 221.349 82.1019 221.135 82.0448 220.93C79.7098 212.711 79.4504 204.104 79.165 195.678C78.8277 186.765 78.3607 177.856 77.764 168.951C76.6354 151.452 75.3771 134.005 73.7166 116.493C72.8581 106.67 71.4898 96.8981 69.6174 87.2164C69.2023 85.1714 66.076 86.0386 66.4911 88.0706Z" fill="#151718"/>
<path d="M80.1898 223.428C88.3752 224.722 96.5218 223.428 104.5 221.551C112.478 219.674 120.533 217.345 128.472 215.002C144.35 210.317 160.021 205.031 175.484 199.147C184.132 195.859 192.693 192.408 201.168 188.792C203.075 187.977 201.428 185.181 199.534 185.997C170.013 198.671 139.582 209.119 108.495 217.254C99.5832 219.584 90.334 221.875 81.0589 220.36C79.0093 220.024 78.1402 223.143 80.1898 223.479V223.428Z" fill="#151718"/>
<path d="M199.69 188.559C201.248 190.127 202.922 191.577 204.697 192.895C206.543 194.495 208.691 195.709 211.014 196.468C214.906 197.412 217.669 194.824 218.798 191.394C219.34 189.555 219.683 187.663 219.822 185.751C220.151 183.041 220.415 180.336 220.614 177.636C220.977 172.64 221.154 167.639 221.146 162.635C221.146 142.12 218.305 121.748 215.049 101.531C213.22 90.1027 211.157 78.687 209.471 67.2325C209.159 65.1875 206.033 66.0547 206.344 68.0997C212.026 105.336 220.614 142.871 217.111 180.703C216.878 183.292 216.683 185.88 216.203 188.391C215.918 189.918 215.49 191.847 214.193 192.857C212.169 194.436 209.328 192.209 207.706 191.045C205.653 189.611 203.734 187.995 201.973 186.217C201.663 185.942 201.26 185.796 200.846 185.809C200.431 185.822 200.038 185.992 199.746 186.285C199.453 186.578 199.285 186.972 199.274 187.385C199.264 187.799 199.413 188.2 199.69 188.508V188.559Z" fill="#151718"/>
<path d="M207.564 65.4593C199.78 69.0575 191.543 70.0152 183.15 70.8436L157.309 73.4322C155.247 73.6393 155.221 76.875 157.309 76.6679L184.421 74.0017C193.009 73.1604 201.285 71.9696 209.198 68.3068C211.092 67.4137 209.445 64.631 207.564 65.5111V65.4593Z" fill="#151718"/>
<path d="M81.3184 223.803C100.336 225.253 119.197 221.59 137.773 218.005C156.894 214.329 176.119 211.417 195.448 209.087C202.492 208.246 212.662 208.116 215.619 200.182C215.683 199.942 215.69 199.69 215.641 199.447C215.592 199.203 215.488 198.974 215.336 198.776C215.185 198.579 214.99 198.419 214.767 198.308C214.544 198.197 214.299 198.139 214.05 198.137C187.095 201.204 160.356 205.929 133.985 212.284C126.539 214.087 119.124 216.02 111.738 218.082C111.324 218.197 110.972 218.472 110.76 218.846C110.548 219.219 110.494 219.662 110.61 220.075C110.725 220.489 111 220.84 111.375 221.051C111.749 221.262 112.193 221.316 112.607 221.202C138.495 213.98 164.805 208.361 191.387 204.376C198.929 203.237 206.483 202.24 214.05 201.386L212.493 199.341C211.378 202.331 208.199 203.664 205.32 204.415C201.429 205.228 197.491 205.79 193.528 206.097C184.447 207.197 175.445 208.401 166.416 209.76C148.255 212.517 130.301 216.71 112.101 219.247C101.916 220.777 91.5962 221.211 81.3184 220.541C79.2428 220.386 79.2428 223.622 81.3184 223.777V223.803Z" fill="#151718"/>
<path d="M140.394 216.167C163.277 209.048 187.846 210.679 210.664 203.353C212.312 202.823 212.143 199.962 210.236 200.169C196.823 201.593 183.487 203.556 170.23 206.058C168.18 206.447 169.049 209.566 171.086 209.19C184.058 206.74 197.108 204.82 210.236 203.431L209.808 200.26C186.977 207.586 162.408 205.955 139.538 213.073C137.553 213.695 138.396 216.827 140.394 216.193V216.167Z" fill="#151718"/>
<path d="M197.575 203.923C203.675 204.155 209.751 203.046 215.373 200.674C217.669 199.864 219.574 198.218 220.705 196.066C221.833 193.478 221.639 190.371 221.807 187.653C222.599 175.138 223.221 162.544 222.119 150.015C221.539 143.013 220.306 136.08 218.434 129.307C218.31 128.905 218.035 128.568 217.665 128.365C217.296 128.163 216.863 128.112 216.457 128.223C216.05 128.334 215.703 128.598 215.489 128.96C215.275 129.322 215.21 129.752 215.308 130.161C218.228 141.233 219.629 152.649 219.472 164.097C219.472 169.831 219.265 175.552 218.953 181.273C218.798 184.133 218.616 186.993 218.434 189.841C218.266 192.429 218.434 195.16 215.944 196.791C213.288 198.346 210.368 199.399 207.33 199.897C204.126 200.578 200.849 200.861 197.575 200.739C195.487 200.661 195.5 203.897 197.575 203.975V203.923Z" fill="#151718"/>
<path d="M68.1516 88.4848C77.8029 90.8663 87.8434 88.2777 97.3909 86.5434L128.07 81.0297C130.12 80.6543 129.251 77.5351 127.214 77.9104L97.806 83.1911C88.492 84.8737 78.4515 87.6823 69.0337 85.3655C67.01 84.8737 66.1409 87.9541 68.1645 88.4848H68.1516Z" fill="#151718"/>
<path d="M66.3484 86.9834C68.5797 109.185 70.9536 131.373 73.4702 153.549C73.7037 155.594 76.9467 155.62 76.7132 153.549C74.1966 131.416 71.8227 109.228 69.5915 86.9834C69.3839 84.9255 66.1409 84.8996 66.3484 86.9834Z" fill="#151718"/>
<path d="M218.707 129.98L218.292 123.638C218.282 123.212 218.108 122.806 217.806 122.505C217.504 122.203 217.097 122.03 216.67 122.02C216.241 122.023 215.831 122.195 215.527 122.498C215.224 122.8 215.052 123.21 215.049 123.638L215.464 129.98C215.464 130.409 215.635 130.82 215.939 131.124C216.243 131.427 216.655 131.598 217.085 131.598C217.515 131.598 217.928 131.427 218.232 131.124C218.536 130.82 218.707 130.409 218.707 129.98Z" fill="#151718"/>
<path d="M68.1645 90.1027L61.4839 91.0345C61.2815 91.0888 61.0921 91.1832 60.9271 91.3122C60.7622 91.4412 60.625 91.6021 60.5239 91.7852C60.4065 91.9771 60.3308 92.1915 60.3018 92.4145C60.2727 92.6375 60.291 92.864 60.3553 93.0795C60.4679 93.4857 60.7326 93.8332 61.0947 94.0502C61.4959 94.25 61.9528 94.3093 62.3919 94.2185L69.1245 93.2737C69.5363 93.1588 69.8859 92.8862 70.0973 92.5153C70.3087 92.1444 70.3647 91.7053 70.2531 91.2934C70.1398 90.8838 69.8695 90.5351 69.5007 90.3227C69.1027 90.1124 68.6421 90.0527 68.2035 90.1544L68.1645 90.1027Z" fill="#151718"/>
<path d="M60.5758 93.8949C63.7021 97.7778 64.9864 102.644 65.7647 107.446C66.556 112.882 66.8025 118.396 67.3343 123.858C68.5278 135.938 70.1104 147.94 72.0822 159.865C73.1545 166.664 74.3782 173.434 75.7533 180.172C76.1684 182.217 79.2947 181.35 78.8796 179.318C76.3803 167.005 74.2961 154.619 72.627 142.159C71.8227 136.119 71.1179 130.019 70.5125 123.858C69.9677 118.279 69.6823 112.662 68.891 107.032C68.0997 101.402 66.4911 96.0435 62.8719 91.604C61.5747 89.9862 59.2786 92.29 60.5758 93.8949Z" fill="#151718"/>
<path d="M70.4736 103.136L69.1764 97.1954C68.8132 95.5516 67.97 93.196 65.8036 93.4549L67.4251 95.0727L67.3473 93.6878C67.3439 93.2598 67.172 92.8503 66.8686 92.5476C66.5653 92.2449 66.1548 92.0734 65.7258 92.07C65.2965 92.0731 64.8851 92.242 64.5779 92.5413C64.2708 92.8405 64.0917 93.2468 64.0783 93.6749L64.1561 95.0598C64.1561 95.8493 64.8696 96.7812 65.7777 96.6777C66.1409 96.6777 65.9204 96.6777 65.6998 96.6129C65.4793 96.5482 65.3626 96.38 65.622 96.6129C65.3885 96.3929 65.622 96.6129 65.622 96.6906C65.622 96.7683 65.7517 97.0401 65.622 96.7812C65.8555 97.506 65.9852 98.2567 66.1539 99.0074L67.2435 103.99C67.3676 104.392 67.6434 104.73 68.0125 104.932C68.3817 105.134 68.8152 105.185 69.2214 105.074C69.6276 104.963 69.9745 104.699 70.1889 104.337C70.4032 103.975 70.4681 103.545 70.3698 103.136H70.4736Z" fill="#151718"/>
<path d="M202.881 190.32L184.071 198.642C178 201.334 171.968 204.22 165.715 206.408C159.629 208.624 153.288 210.072 146.841 210.718C141.068 211.261 135.049 210.964 129.847 213.902C129.628 214.028 129.441 214.203 129.301 214.413C129.161 214.623 129.071 214.863 129.038 215.113C129.005 215.363 129.031 215.618 129.113 215.857C129.195 216.095 129.331 216.312 129.51 216.49C131.08 217.785 132.805 217.785 134.699 217.396C137.293 216.969 139.888 216.413 142.353 215.778C142.558 215.722 142.75 215.625 142.918 215.494C143.085 215.363 143.226 215.2 143.331 215.015C143.435 214.83 143.503 214.626 143.528 214.415C143.554 214.204 143.538 213.99 143.481 213.785C143.424 213.58 143.327 213.389 143.196 213.221C143.065 213.054 142.901 212.914 142.716 212.809C142.53 212.705 142.326 212.638 142.115 212.612C141.903 212.586 141.689 212.602 141.483 212.659C139.771 213.086 138.033 213.488 136.295 213.824C135.283 214.031 132.675 214.976 131.767 214.199L131.443 216.788C136.749 213.798 143.351 214.51 149.202 213.772C155.528 212.996 161.742 211.48 167.713 209.255C173.836 206.964 179.751 204.169 185.719 201.489L204.567 193.115C206.474 192.261 204.827 189.478 202.933 190.32H202.881Z" fill="#151718"/>
<path d="M147.932 116.67C140.726 116.615 132.372 119.917 128.507 126.259C127.543 127.852 127.051 129.68 127.086 131.537C127.121 133.393 127.681 135.203 128.703 136.758C130.8 140.135 134.283 142.224 137.657 144.151C138.032 144.369 138.479 144.431 138.9 144.322C139.321 144.214 139.681 143.944 139.901 143.572C140.121 143.2 140.183 142.757 140.074 142.34C139.964 141.923 139.692 141.566 139.317 141.348C136.565 139.778 133.552 138.101 131.75 135.46C130.857 134.275 130.374 132.836 130.374 131.357C130.374 129.879 130.857 128.44 131.75 127.255C135.288 122.341 142.036 119.873 147.932 119.917C148.367 119.917 148.783 119.746 149.091 119.441C149.398 119.137 149.57 118.724 149.57 118.293C149.57 117.862 149.398 117.45 149.091 117.145C148.783 116.841 148.367 116.67 147.932 116.67Z" fill="#151718"/>
<path d="M137.581 142.181C127.572 151.22 119.416 162.087 113.558 174.187C112.652 176.059 115.469 177.705 116.386 175.821C122.109 163.952 130.097 153.293 139.907 144.432C141.468 143.025 139.142 140.731 137.581 142.138V142.181Z" fill="#151718"/>
<path d="M113.591 175.832C114.535 177.4 115.813 178.745 117.336 179.772C117.718 179.986 118.168 180.044 118.592 179.934C119.003 179.816 119.353 179.55 119.575 179.188C119.687 179 119.76 178.793 119.788 178.577C119.816 178.361 119.799 178.141 119.739 177.932C119.61 177.533 119.343 177.192 118.985 176.969L118.483 176.601L118.832 176.86C118.12 176.313 117.481 175.676 116.932 174.966L117.184 175.302C116.911 174.956 116.659 174.595 116.43 174.219C116.209 173.857 115.858 173.59 115.447 173.473C115.022 173.366 114.571 173.428 114.192 173.646C113.822 173.848 113.547 174.186 113.427 174.587C113.318 175.008 113.377 175.454 113.591 175.832Z" fill="#151718"/>
<path d="M119.542 179.718C122.578 177.365 125.204 174.535 127.317 171.34C127.434 171.156 127.513 170.95 127.549 170.735C127.584 170.519 127.576 170.299 127.524 170.087C127.471 169.875 127.377 169.676 127.245 169.501C127.113 169.326 126.948 169.18 126.757 169.07C126.567 168.96 126.357 168.889 126.138 168.862C125.92 168.834 125.698 168.851 125.487 168.91C125.275 168.969 125.077 169.07 124.906 169.207C124.734 169.344 124.592 169.514 124.489 169.706C124.226 170.096 123.964 170.474 123.691 170.853C123.56 171.026 123.44 171.2 123.309 171.362L123.102 171.643C122.523 172.358 121.944 173.05 121.311 173.722C120.062 175.053 118.707 176.284 117.26 177.402C116.956 177.707 116.785 178.12 116.785 178.549C116.785 178.978 116.956 179.39 117.26 179.696C117.577 179.986 117.992 180.147 118.423 180.147C118.854 180.147 119.269 179.986 119.586 179.696L119.542 179.718Z" fill="#151718"/>
<path d="M124.598 172.065L127.633 173.505C128.596 174.059 129.618 174.505 130.68 174.836C131.146 174.958 131.635 174.968 132.107 174.867C132.579 174.766 133.019 174.557 133.394 174.255C133.768 173.954 134.066 173.569 134.262 173.132C134.458 172.695 134.548 172.218 134.523 171.741C134.486 170.886 134.193 170.061 133.683 169.37C133.41 168.959 132.209 167.866 132.35 167.325C132.35 167.411 132.35 167.325 132.569 167.249C132.792 167.232 133.016 167.266 133.224 167.346C134.098 167.789 134.937 168.295 135.735 168.862C136.501 169.344 137.399 169.578 138.305 169.532C139.211 169.485 140.08 169.16 140.791 168.602C142.211 167.314 142.003 165.203 141.206 163.645C140.665 162.931 140.225 162.148 139.896 161.317C139.836 161.142 139.836 160.952 139.896 160.776C139.896 160.776 139.71 160.776 139.896 160.863C141.184 161.285 142.211 162.27 143.652 162.194C145.89 162.086 146.764 159.889 146.426 157.973C145.938 155.824 144.844 153.857 143.27 152.301C141.828 150.764 139.514 153.07 140.955 154.596C142.068 155.691 142.854 157.069 143.226 158.579C143.303 159.001 143.15 158.98 143.488 158.958C143.161 158.958 142.538 158.514 142.189 158.33C141.624 157.945 140.97 157.71 140.288 157.645C139.606 157.581 138.918 157.69 138.291 157.962C137.62 158.387 137.103 159.013 136.816 159.749C136.53 160.485 136.488 161.292 136.696 162.053C136.907 162.802 137.239 163.511 137.679 164.153C137.996 164.64 138.673 165.409 138.575 166.047C138.575 166.307 138.411 166.351 137.974 166.275C137.286 166.071 136.649 165.724 136.107 165.257C135.479 164.757 134.747 164.4 133.963 164.213C133.18 164.026 132.364 164.013 131.575 164.175C130.799 164.37 130.121 164.839 129.671 165.495C129.22 166.152 129.027 166.949 129.129 167.736C129.278 168.665 129.678 169.537 130.287 170.258C130.556 170.577 130.804 170.913 131.029 171.265C130.975 171.167 131.28 171.849 131.259 171.838C131.237 171.827 131.575 171.838 131.488 171.687C131.297 171.603 131.1 171.535 130.898 171.481C130.407 171.275 129.937 171.016 129.468 170.788L126.192 169.251C124.303 168.342 122.643 171.135 124.543 172.055L124.598 172.065Z" fill="#151718"/>
<path d="M143.215 154.812L148.533 148.881C148.694 148.732 148.823 148.553 148.912 148.354C149.002 148.155 149.05 147.94 149.054 147.722C149.058 147.504 149.017 147.287 148.935 147.085C148.853 146.883 148.73 146.699 148.575 146.545C148.419 146.391 148.234 146.269 148.03 146.188C147.826 146.106 147.607 146.066 147.387 146.07C147.168 146.074 146.951 146.121 146.75 146.21C146.549 146.299 146.368 146.427 146.218 146.586L140.9 152.518C140.739 152.666 140.61 152.846 140.521 153.045C140.431 153.244 140.383 153.459 140.379 153.677C140.375 153.895 140.416 154.111 140.498 154.314C140.581 154.516 140.703 154.699 140.859 154.854C141.014 155.008 141.2 155.129 141.404 155.211C141.607 155.293 141.826 155.333 142.046 155.329C142.266 155.325 142.483 155.277 142.684 155.189C142.884 155.1 143.065 154.972 143.215 154.812Z" fill="#151718"/>
<path d="M146.709 148.221C148.578 149.616 150.732 150.589 153.02 151.071C155.308 151.552 157.675 151.532 159.954 151.009C162.234 150.487 164.37 149.477 166.213 148.049C168.056 146.621 169.561 144.81 170.623 142.744C175.078 133.76 171.223 123.261 162.684 118.304C160.076 116.828 157.197 115.884 154.215 115.527C151.234 115.17 148.21 115.407 145.323 116.226C144.936 116.369 144.618 116.65 144.431 117.014C144.243 117.377 144.2 117.798 144.31 118.192C144.419 118.586 144.674 118.924 145.023 119.142C145.372 119.359 145.791 119.438 146.196 119.365C154.397 117.135 163.722 120.263 167.707 128.024C171.212 134.843 168.614 144.487 161.09 147.355C159.122 148.149 156.982 148.435 154.871 148.185C152.761 147.935 150.749 147.158 149.024 145.926C147.386 144.649 145.05 146.933 146.709 148.221Z" fill="#151718"/>
<path d="M157.727 127.147C158.142 121.216 158.885 112.892 165.371 110.219C166.584 109.653 167.944 109.47 169.266 109.694C170.588 109.919 171.809 110.54 172.763 111.474C173.626 112.41 174.265 113.526 174.631 114.741C174.998 115.955 175.084 117.236 174.881 118.488C174.357 121.908 172.152 124.787 169.596 127.028C168.024 128.413 170.339 130.708 171.911 129.322C174.849 126.903 176.949 123.633 177.917 119.971C178.319 118.284 178.347 116.53 177.998 114.831C177.649 113.133 176.932 111.529 175.897 110.132C174.798 108.697 173.31 107.602 171.607 106.973C169.903 106.345 168.055 106.209 166.277 106.582C164.431 107.003 162.701 107.817 161.205 108.968C159.71 110.12 158.486 111.581 157.618 113.249C155.237 117.492 154.812 122.395 154.451 127.147C154.298 129.236 157.574 129.225 157.727 127.147Z" fill="#151718"/>
<path d="M154.484 122.244C152.016 121.356 149.101 120.663 146.84 122.384C144.58 124.105 144.602 127.234 146.032 129.561C148.544 133.674 154.397 136.217 159.026 134.193C161.636 133.035 163.296 129.712 161.593 127.136C161.366 126.773 161.007 126.51 160.591 126.401C160.174 126.293 159.732 126.346 159.354 126.552C158.981 126.771 158.711 127.126 158.6 127.541C158.49 127.956 158.549 128.398 158.764 128.77C158.764 128.77 158.983 129.171 158.917 129.019C158.917 129.084 159.016 129.474 158.994 129.279C159.02 129.539 158.99 129.801 158.906 130.048C158.775 130.338 158.586 130.598 158.349 130.812C158.112 131.026 157.834 131.19 157.531 131.292C156.054 131.788 154.447 131.746 152.999 131.173C151.531 130.665 150.237 129.757 149.265 128.554C148.83 128.004 148.508 127.375 148.315 126.703C148.218 126.399 148.196 126.076 148.249 125.761C148.288 125.542 148.391 125.339 148.544 125.177C148.749 124.995 148.981 124.845 149.232 124.733C149.578 124.593 149.951 124.53 150.324 124.549C151.482 124.626 152.618 124.909 153.676 125.383C154.096 125.493 154.542 125.436 154.92 125.223C155.298 125.011 155.576 124.66 155.696 124.246C155.801 123.83 155.741 123.39 155.528 123.017C155.314 122.644 154.964 122.367 154.55 122.244H154.484Z" fill="#151718"/>
</svg>
